# xmcd CD database file
#
# Track frame offsets:
#	150
#	28220
#	42939
#	54646
#	70009
#
# Disc length: 1137 seconds
#
# Revision: 0
# Processed by: cddbd v1.5.2PL0 Copyright (c) Steve Scherf et al.
# Submitted via: CDex 1.70beta3
#
DISCID=40046f05
DTITLE=ハッチハッチェルオーケストラ - 道
DYEAR=2014
DGENRE=Jazz
TTITLE0=道
TTITLE1=ときわ中学の唄
TTITLE2=お先にどうぞ
TTITLE3=どん底エンドブルース
TTITLE4=バーベキュー(下田卓バージョン)
EXTD=YEAR: 2014
EXTT0=
EXTT1=
EXTT2=
EXTT3=
EXTT4=
PLAYORDER=
